<mxfile host="app.diagrams.net" modified="2021-03-25T17:02:51.273Z" agent="5.0 (Windows NT 10.0; Win64; x64) AppleWebKit/537.36 (KHTML, like Gecko) Chrome/89.0.4389.90 Safari/537.36" etag="QOzCIJCOzc0-5p3lOyCS" version="14.5.1" type="github" pages="2">
  <diagram id="Rjy7DIeg4grlGBXOI1I1" name="Page-1">
    <mxGraphModel dx="2048" dy="645" grid="1" gridSize="10" guides="1" tooltips="1" connect="1" arrows="1" fold="1" page="1" pageScale="1" pageWidth="827" pageHeight="1169" math="0" shadow="0">
      <root>
        <mxCell id="0" />
        <mxCell id="1" parent="0" />
        <mxCell id="MeOerKK49-KA1nSiK9yO-10" value="loop" style="shape=umlFrame;whiteSpace=wrap;html=1;" parent="1" vertex="1">
          <mxGeometry x="40" y="520" width="570" height="70" as="geometry" />
        </mxCell>
        <mxCell id="MeOerKK49-KA1nSiK9yO-4" value="opt" style="shape=umlFrame;whiteSpace=wrap;html=1;width=50;height=30;" parent="1" vertex="1">
          <mxGeometry x="-80" y="370" width="1030" height="470" as="geometry" />
        </mxCell>
        <mxCell id="4TLl59DcIBhPbdApSVMo-17" value="loop" style="shape=umlFrame;whiteSpace=wrap;html=1;" parent="1" vertex="1">
          <mxGeometry x="40" y="620" width="730" height="95" as="geometry" />
        </mxCell>
        <mxCell id="4TLl59DcIBhPbdApSVMo-1" value="a: Aszteroida" style="shape=umlLifeline;perimeter=lifelinePerimeter;whiteSpace=wrap;html=1;container=1;collapsible=0;recursiveResize=0;outlineConnect=0;" parent="1" vertex="1">
          <mxGeometry x="130" y="210" width="100" height="730" as="geometry" />
        </mxCell>
        <mxCell id="4TLl59DcIBhPbdApSVMo-2" value="" style="html=1;points=[];perimeter=orthogonalPerimeter;" parent="4TLl59DcIBhPbdApSVMo-1" vertex="1">
          <mxGeometry x="45" y="120" width="10" height="590" as="geometry" />
        </mxCell>
        <mxCell id="4TLl59DcIBhPbdApSVMo-3" value="1. Fur()" style="html=1;verticalAlign=bottom;endArrow=block;entryX=0;entryY=0;" parent="4TLl59DcIBhPbdApSVMo-1" target="4TLl59DcIBhPbdApSVMo-2" edge="1">
          <mxGeometry relative="1" as="geometry">
            <mxPoint x="-40" y="120" as="sourcePoint" />
          </mxGeometry>
        </mxCell>
        <mxCell id="4TLl59DcIBhPbdApSVMo-4" value="" style="html=1;verticalAlign=bottom;endArrow=open;dashed=1;endSize=8;exitX=0;exitY=0.95;" parent="4TLl59DcIBhPbdApSVMo-1" source="4TLl59DcIBhPbdApSVMo-2" edge="1">
          <mxGeometry relative="1" as="geometry">
            <mxPoint x="-40" y="678" as="targetPoint" />
          </mxGeometry>
        </mxCell>
        <mxCell id="4TLl59DcIBhPbdApSVMo-9" value="" style="html=1;points=[];perimeter=orthogonalPerimeter;" parent="4TLl59DcIBhPbdApSVMo-1" vertex="1">
          <mxGeometry x="55" y="280" width="10" height="330" as="geometry" />
        </mxCell>
        <mxCell id="4TLl59DcIBhPbdApSVMo-5" value="radiokaktiv_ny: RadioaktivNyersanyag" style="shape=umlLifeline;perimeter=lifelinePerimeter;whiteSpace=wrap;html=1;container=1;collapsible=0;recursiveResize=0;outlineConnect=0;" parent="1" vertex="1">
          <mxGeometry x="300" y="210" width="140" height="720" as="geometry" />
        </mxCell>
        <mxCell id="4TLl59DcIBhPbdApSVMo-6" value="" style="html=1;points=[];perimeter=orthogonalPerimeter;" parent="4TLl59DcIBhPbdApSVMo-5" vertex="1">
          <mxGeometry x="65" y="200" width="10" height="480" as="geometry" />
        </mxCell>
        <mxCell id="4TLl59DcIBhPbdApSVMo-8" value="" style="html=1;verticalAlign=bottom;endArrow=open;dashed=1;endSize=8;exitX=0;exitY=0.95;" parent="1" source="4TLl59DcIBhPbdApSVMo-6" target="4TLl59DcIBhPbdApSVMo-1" edge="1">
          <mxGeometry relative="1" as="geometry">
            <mxPoint x="375" y="406" as="targetPoint" />
          </mxGeometry>
        </mxCell>
        <mxCell id="4TLl59DcIBhPbdApSVMo-7" value="2. Megfurva(a: Aszteroida)" style="html=1;verticalAlign=bottom;endArrow=block;entryX=0;entryY=0;" parent="1" source="4TLl59DcIBhPbdApSVMo-1" target="4TLl59DcIBhPbdApSVMo-6" edge="1">
          <mxGeometry relative="1" as="geometry">
            <mxPoint x="375" y="330" as="sourcePoint" />
          </mxGeometry>
        </mxCell>
        <mxCell id="4TLl59DcIBhPbdApSVMo-10" value="4. Robban()" style="html=1;verticalAlign=bottom;endArrow=block;entryX=1;entryY=0;" parent="1" source="4TLl59DcIBhPbdApSVMo-5" target="4TLl59DcIBhPbdApSVMo-9" edge="1">
          <mxGeometry relative="1" as="geometry">
            <mxPoint x="255" y="430" as="sourcePoint" />
          </mxGeometry>
        </mxCell>
        <mxCell id="4TLl59DcIBhPbdApSVMo-11" value="" style="html=1;verticalAlign=bottom;endArrow=open;dashed=1;endSize=8;exitX=1;exitY=0.95;" parent="1" source="4TLl59DcIBhPbdApSVMo-9" target="4TLl59DcIBhPbdApSVMo-5" edge="1">
          <mxGeometry relative="1" as="geometry">
            <mxPoint x="255" y="487" as="targetPoint" />
          </mxGeometry>
        </mxCell>
        <mxCell id="4TLl59DcIBhPbdApSVMo-12" value="h: Hajo" style="shape=umlLifeline;perimeter=lifelinePerimeter;whiteSpace=wrap;html=1;container=1;collapsible=0;recursiveResize=0;outlineConnect=0;" parent="1" vertex="1">
          <mxGeometry x="500" y="210" width="100" height="710" as="geometry" />
        </mxCell>
        <mxCell id="4TLl59DcIBhPbdApSVMo-14" value="" style="html=1;points=[];perimeter=orthogonalPerimeter;" parent="4TLl59DcIBhPbdApSVMo-12" vertex="1">
          <mxGeometry x="45" y="330" width="10" height="40" as="geometry" />
        </mxCell>
        <mxCell id="4TLl59DcIBhPbdApSVMo-15" value="5. Robbanas()" style="html=1;verticalAlign=bottom;endArrow=block;entryX=0;entryY=0;" parent="1" source="4TLl59DcIBhPbdApSVMo-9" target="4TLl59DcIBhPbdApSVMo-14" edge="1">
          <mxGeometry relative="1" as="geometry">
            <mxPoint x="200" y="410" as="sourcePoint" />
          </mxGeometry>
        </mxCell>
        <mxCell id="4TLl59DcIBhPbdApSVMo-18" value="[for all h: Hajo in hajok]" style="text;html=1;strokeColor=none;fillColor=none;align=center;verticalAlign=middle;whiteSpace=wrap;rounded=0;" parent="1" vertex="1">
          <mxGeometry x="60" y="560" width="90" height="20" as="geometry" />
        </mxCell>
        <mxCell id="4TLl59DcIBhPbdApSVMo-19" value="p: Palya" style="shape=umlLifeline;perimeter=lifelinePerimeter;whiteSpace=wrap;html=1;container=1;collapsible=0;recursiveResize=0;outlineConnect=0;" parent="1" vertex="1">
          <mxGeometry x="860" y="210" width="120" height="730" as="geometry" />
        </mxCell>
        <mxCell id="4TLl59DcIBhPbdApSVMo-20" value="" style="html=1;points=[];perimeter=orthogonalPerimeter;" parent="4TLl59DcIBhPbdApSVMo-19" vertex="1">
          <mxGeometry x="55" y="530" width="10" height="40" as="geometry" />
        </mxCell>
        <mxCell id="4TLl59DcIBhPbdApSVMo-21" value="7. RemoveAszteroida(a: Aszteroida)" style="html=1;verticalAlign=bottom;endArrow=block;entryX=0;entryY=0;" parent="1" source="4TLl59DcIBhPbdApSVMo-9" target="4TLl59DcIBhPbdApSVMo-20" edge="1">
          <mxGeometry relative="1" as="geometry">
            <mxPoint x="655" y="490" as="sourcePoint" />
          </mxGeometry>
        </mxCell>
        <mxCell id="4TLl59DcIBhPbdApSVMo-22" value="" style="html=1;verticalAlign=bottom;endArrow=open;dashed=1;endSize=8;exitX=0;exitY=0.95;" parent="1" source="4TLl59DcIBhPbdApSVMo-20" target="4TLl59DcIBhPbdApSVMo-9" edge="1">
          <mxGeometry x="-0.0556" y="32" relative="1" as="geometry">
            <mxPoint x="655" y="566" as="targetPoint" />
            <mxPoint as="offset" />
          </mxGeometry>
        </mxCell>
        <mxCell id="MeOerKK49-KA1nSiK9yO-1" value="" style="endArrow=open;startArrow=none;endFill=0;startFill=0;endSize=8;html=1;verticalAlign=bottom;dashed=1;labelBackgroundColor=none;entryX=0.276;entryY=0.714;entryDx=0;entryDy=0;entryPerimeter=0;" parent="1" source="4TLl59DcIBhPbdApSVMo-14" target="MeOerKK49-KA1nSiK9yO-10" edge="1">
          <mxGeometry x="-0.1152" y="-10" width="160" relative="1" as="geometry">
            <mxPoint x="370" y="450" as="sourcePoint" />
            <mxPoint x="530" y="450" as="targetPoint" />
            <mxPoint as="offset" />
          </mxGeometry>
        </mxCell>
        <mxCell id="MeOerKK49-KA1nSiK9yO-6" value="m: Mezo" style="shape=umlLifeline;perimeter=lifelinePerimeter;whiteSpace=wrap;html=1;container=1;collapsible=0;recursiveResize=0;outlineConnect=0;" parent="1" vertex="1">
          <mxGeometry x="700" y="210" width="100" height="710" as="geometry" />
        </mxCell>
        <mxCell id="MeOerKK49-KA1nSiK9yO-7" value="" style="html=1;points=[];perimeter=orthogonalPerimeter;" parent="MeOerKK49-KA1nSiK9yO-6" vertex="1">
          <mxGeometry x="45" y="430" width="10" height="60" as="geometry" />
        </mxCell>
        <mxCell id="MeOerKK49-KA1nSiK9yO-8" value="6. RemoveSzomszed(a)" style="html=1;verticalAlign=bottom;endArrow=block;entryX=0;entryY=0;" parent="1" source="4TLl59DcIBhPbdApSVMo-9" target="MeOerKK49-KA1nSiK9yO-7" edge="1">
          <mxGeometry relative="1" as="geometry">
            <mxPoint x="200" y="490" as="sourcePoint" />
          </mxGeometry>
        </mxCell>
        <mxCell id="MeOerKK49-KA1nSiK9yO-9" value="" style="html=1;verticalAlign=bottom;endArrow=open;dashed=1;endSize=8;exitX=0;exitY=0.95;" parent="1" source="MeOerKK49-KA1nSiK9yO-7" target="4TLl59DcIBhPbdApSVMo-9" edge="1">
          <mxGeometry x="-0.0005" y="-45" relative="1" as="geometry">
            <mxPoint x="675" y="566" as="targetPoint" />
            <mxPoint as="offset" />
          </mxGeometry>
        </mxCell>
        <mxCell id="MeOerKK49-KA1nSiK9yO-18" value="[for all m: Mezo in szomszedok]" style="text;html=1;strokeColor=none;fillColor=none;align=center;verticalAlign=middle;whiteSpace=wrap;rounded=0;" parent="1" vertex="1">
          <mxGeometry x="65" y="670" width="95" height="20" as="geometry" />
        </mxCell>
        <mxCell id="MeOerKK49-KA1nSiK9yO-19" value="[napkozelben]" style="text;html=1;strokeColor=none;fillColor=none;align=center;verticalAlign=middle;whiteSpace=wrap;rounded=0;" parent="1" vertex="1">
          <mxGeometry x="-80" y="420" width="110" height="20" as="geometry" />
        </mxCell>
      </root>
    </mxGraphModel>
  </diagram>
  <diagram id="1zvRQWgCW_XFk76CO3uB" name="Page-2">
    <mxGraphModel dx="1038" dy="548" grid="1" gridSize="10" guides="1" tooltips="1" connect="1" arrows="1" fold="1" page="1" pageScale="1" pageWidth="827" pageHeight="1169" math="0" shadow="0">
      <root>
        <mxCell id="gEA0rAeKUrwyfOQOb0nm-0" />
        <mxCell id="gEA0rAeKUrwyfOQOb0nm-1" parent="gEA0rAeKUrwyfOQOb0nm-0" />
        <mxCell id="5mKPGL81uqoDXcXCVs70-0" value="Radioaktív&lt;br&gt;fúrás" style="shape=umlFrame;whiteSpace=wrap;html=1;width=80;height=50;" parent="gEA0rAeKUrwyfOQOb0nm-1" vertex="1">
          <mxGeometry x="40" y="75" width="830" height="540" as="geometry" />
        </mxCell>
        <mxCell id="obV4PO8V5TS8Af0Fve6h-1" value="alt" style="shape=umlFrame;whiteSpace=wrap;html=1;" vertex="1" parent="gEA0rAeKUrwyfOQOb0nm-1">
          <mxGeometry x="60" y="205" width="780" height="385" as="geometry" />
        </mxCell>
        <mxCell id="ll2xDT3dP-c115ET4ift-3" value="loop" style="shape=umlFrame;whiteSpace=wrap;html=1;" parent="gEA0rAeKUrwyfOQOb0nm-1" vertex="1">
          <mxGeometry x="230" y="330" width="450" height="75" as="geometry" />
        </mxCell>
        <mxCell id="gEA0rAeKUrwyfOQOb0nm-2" value="u: Uran" style="shape=umlLifeline;perimeter=lifelinePerimeter;whiteSpace=wrap;html=1;container=1;collapsible=0;recursiveResize=0;outlineConnect=0;" parent="gEA0rAeKUrwyfOQOb0nm-1" vertex="1">
          <mxGeometry x="130" y="115" width="100" height="505" as="geometry" />
        </mxCell>
        <mxCell id="DI1ERy2E2aJ-kQtJfRe--0" value="" style="html=1;points=[];perimeter=orthogonalPerimeter;" parent="gEA0rAeKUrwyfOQOb0nm-2" vertex="1">
          <mxGeometry x="45" y="80" width="10" height="410" as="geometry" />
        </mxCell>
        <mxCell id="DI1ERy2E2aJ-kQtJfRe--1" value="1. Megfurva(a: Aszteroida)" style="html=1;verticalAlign=bottom;endArrow=block;entryX=0;entryY=0;" parent="gEA0rAeKUrwyfOQOb0nm-2" target="DI1ERy2E2aJ-kQtJfRe--0" edge="1">
          <mxGeometry relative="1" as="geometry">
            <mxPoint x="-90" y="80" as="sourcePoint" />
          </mxGeometry>
        </mxCell>
        <mxCell id="Lnio0oATx6du8sGpmg3y-0" value="a: Aszteroida" style="shape=umlLifeline;perimeter=lifelinePerimeter;whiteSpace=wrap;html=1;container=1;collapsible=0;recursiveResize=0;outlineConnect=0;" parent="gEA0rAeKUrwyfOQOb0nm-1" vertex="1">
          <mxGeometry x="300" y="120" width="100" height="500" as="geometry" />
        </mxCell>
        <mxCell id="mDdEdNz_CvxorMiRK74d-0" value="" style="html=1;points=[];perimeter=orthogonalPerimeter;" parent="Lnio0oATx6du8sGpmg3y-0" vertex="1">
          <mxGeometry x="45" y="110" width="10" height="260" as="geometry" />
        </mxCell>
        <mxCell id="mDdEdNz_CvxorMiRK74d-2" value="" style="html=1;verticalAlign=bottom;endArrow=open;dashed=1;endSize=8;exitX=0.26;exitY=1.004;exitDx=0;exitDy=0;exitPerimeter=0;" parent="gEA0rAeKUrwyfOQOb0nm-1" source="mDdEdNz_CvxorMiRK74d-0" target="gEA0rAeKUrwyfOQOb0nm-2" edge="1">
          <mxGeometry x="-0.2926" y="-16" relative="1" as="geometry">
            <mxPoint x="275" y="306" as="targetPoint" />
            <mxPoint as="offset" />
          </mxGeometry>
        </mxCell>
        <mxCell id="mDdEdNz_CvxorMiRK74d-1" value="2. Robban()" style="html=1;verticalAlign=bottom;endArrow=block;entryX=0;entryY=0;" parent="gEA0rAeKUrwyfOQOb0nm-1" source="gEA0rAeKUrwyfOQOb0nm-2" target="mDdEdNz_CvxorMiRK74d-0" edge="1">
          <mxGeometry relative="1" as="geometry">
            <mxPoint x="275" y="230" as="sourcePoint" />
          </mxGeometry>
        </mxCell>
        <mxCell id="wa85sXHv1oqVOdliKzrx-0" value="h: Hajo" style="shape=umlLifeline;perimeter=lifelinePerimeter;whiteSpace=wrap;html=1;container=1;collapsible=0;recursiveResize=0;outlineConnect=0;" parent="gEA0rAeKUrwyfOQOb0nm-1" vertex="1">
          <mxGeometry x="450" y="120" width="100" height="500" as="geometry" />
        </mxCell>
        <mxCell id="FRHCIu5AHI_1_hx7W8Nl-0" value="" style="html=1;points=[];perimeter=orthogonalPerimeter;" parent="wa85sXHv1oqVOdliKzrx-0" vertex="1">
          <mxGeometry x="45" y="150" width="10" height="30" as="geometry" />
        </mxCell>
        <mxCell id="wa85sXHv1oqVOdliKzrx-1" value="m: Mezo" style="shape=umlLifeline;perimeter=lifelinePerimeter;whiteSpace=wrap;html=1;container=1;collapsible=0;recursiveResize=0;outlineConnect=0;" parent="gEA0rAeKUrwyfOQOb0nm-1" vertex="1">
          <mxGeometry x="600" y="120" width="100" height="500" as="geometry" />
        </mxCell>
        <mxCell id="ll2xDT3dP-c115ET4ift-0" value="" style="html=1;points=[];perimeter=orthogonalPerimeter;" parent="wa85sXHv1oqVOdliKzrx-1" vertex="1">
          <mxGeometry x="45" y="230" width="10" height="40" as="geometry" />
        </mxCell>
        <mxCell id="wa85sXHv1oqVOdliKzrx-2" value="p: Palya" style="shape=umlLifeline;perimeter=lifelinePerimeter;whiteSpace=wrap;html=1;container=1;collapsible=0;recursiveResize=0;outlineConnect=0;" parent="gEA0rAeKUrwyfOQOb0nm-1" vertex="1">
          <mxGeometry x="740" y="120" width="100" height="500" as="geometry" />
        </mxCell>
        <mxCell id="MoJVxfzbeK35qLnsbgvp-0" value="" style="html=1;points=[];perimeter=orthogonalPerimeter;" parent="wa85sXHv1oqVOdliKzrx-2" vertex="1">
          <mxGeometry x="45" y="310" width="10" height="40" as="geometry" />
        </mxCell>
        <mxCell id="FRHCIu5AHI_1_hx7W8Nl-1" value="3. Robbanas()" style="html=1;verticalAlign=bottom;endArrow=block;entryX=0;entryY=0;" parent="gEA0rAeKUrwyfOQOb0nm-1" source="Lnio0oATx6du8sGpmg3y-0" target="FRHCIu5AHI_1_hx7W8Nl-0" edge="1">
          <mxGeometry relative="1" as="geometry">
            <mxPoint x="425" y="250" as="sourcePoint" />
          </mxGeometry>
        </mxCell>
        <mxCell id="FRHCIu5AHI_1_hx7W8Nl-2" value="" style="html=1;verticalAlign=bottom;endArrow=open;dashed=1;endSize=8;exitX=0;exitY=0.95;" parent="gEA0rAeKUrwyfOQOb0nm-1" source="FRHCIu5AHI_1_hx7W8Nl-0" target="Lnio0oATx6du8sGpmg3y-0" edge="1">
          <mxGeometry relative="1" as="geometry">
            <mxPoint x="425" y="326" as="targetPoint" />
          </mxGeometry>
        </mxCell>
        <mxCell id="MoJVxfzbeK35qLnsbgvp-1" value="5. RemoveAszteroida(a)" style="html=1;verticalAlign=bottom;endArrow=block;entryX=0;entryY=0;" parent="gEA0rAeKUrwyfOQOb0nm-1" source="Lnio0oATx6du8sGpmg3y-0" target="MoJVxfzbeK35qLnsbgvp-0" edge="1">
          <mxGeometry x="0.0126" relative="1" as="geometry">
            <mxPoint x="570" y="330" as="sourcePoint" />
            <mxPoint x="1" as="offset" />
          </mxGeometry>
        </mxCell>
        <mxCell id="MoJVxfzbeK35qLnsbgvp-2" value="" style="html=1;verticalAlign=bottom;endArrow=open;dashed=1;endSize=8;exitX=0;exitY=0.95;" parent="gEA0rAeKUrwyfOQOb0nm-1" source="MoJVxfzbeK35qLnsbgvp-0" target="Lnio0oATx6du8sGpmg3y-0" edge="1">
          <mxGeometry relative="1" as="geometry">
            <mxPoint x="570" y="406" as="targetPoint" />
          </mxGeometry>
        </mxCell>
        <mxCell id="nLlKplyffB55E6Mv-8_a-0" value="loop" style="shape=umlFrame;whiteSpace=wrap;html=1;" parent="gEA0rAeKUrwyfOQOb0nm-1" vertex="1">
          <mxGeometry x="230" y="250" width="334" height="70" as="geometry" />
        </mxCell>
        <mxCell id="nLlKplyffB55E6Mv-8_a-1" value="[for all h:Hajo in hajok]&amp;nbsp;" style="text;html=1;strokeColor=none;fillColor=none;align=center;verticalAlign=middle;whiteSpace=wrap;rounded=0;" parent="gEA0rAeKUrwyfOQOb0nm-1" vertex="1">
          <mxGeometry x="240" y="290" width="109" height="20" as="geometry" />
        </mxCell>
        <mxCell id="ll2xDT3dP-c115ET4ift-1" value="4. RemoveSzomszed(a: Aszteroida)" style="html=1;verticalAlign=bottom;endArrow=block;entryX=0;entryY=0;" parent="gEA0rAeKUrwyfOQOb0nm-1" source="Lnio0oATx6du8sGpmg3y-0" target="ll2xDT3dP-c115ET4ift-0" edge="1">
          <mxGeometry relative="1" as="geometry">
            <mxPoint x="575" y="330" as="sourcePoint" />
          </mxGeometry>
        </mxCell>
        <mxCell id="ll2xDT3dP-c115ET4ift-2" value="" style="html=1;verticalAlign=bottom;endArrow=open;dashed=1;endSize=8;exitX=0;exitY=0.95;" parent="gEA0rAeKUrwyfOQOb0nm-1" source="ll2xDT3dP-c115ET4ift-0" target="mDdEdNz_CvxorMiRK74d-0" edge="1">
          <mxGeometry relative="1" as="geometry">
            <mxPoint x="575" y="406" as="targetPoint" />
          </mxGeometry>
        </mxCell>
        <mxCell id="ll2xDT3dP-c115ET4ift-4" value="[for all m:Mezo in szomszedok]&amp;nbsp;" style="text;html=1;strokeColor=none;fillColor=none;align=center;verticalAlign=middle;whiteSpace=wrap;rounded=0;" parent="gEA0rAeKUrwyfOQOb0nm-1" vertex="1">
          <mxGeometry x="240" y="370" width="95" height="20" as="geometry" />
        </mxCell>
        <mxCell id="obV4PO8V5TS8Af0Fve6h-2" value="[expozicio == 3]" style="text;html=1;strokeColor=none;fillColor=none;align=center;verticalAlign=middle;whiteSpace=wrap;rounded=0;" vertex="1" parent="gEA0rAeKUrwyfOQOb0nm-1">
          <mxGeometry x="70" y="240" width="90" height="20" as="geometry" />
        </mxCell>
        <mxCell id="obV4PO8V5TS8Af0Fve6h-3" value="[expozicio &amp;lt; 3]" style="text;html=1;strokeColor=none;fillColor=none;align=center;verticalAlign=middle;whiteSpace=wrap;rounded=0;" vertex="1" parent="gEA0rAeKUrwyfOQOb0nm-1">
          <mxGeometry x="70" y="510" width="90" height="20" as="geometry" />
        </mxCell>
        <mxCell id="DI1ERy2E2aJ-kQtJfRe--2" value="" style="html=1;verticalAlign=bottom;endArrow=open;dashed=1;endSize=8;entryX=-0.003;entryY=0.975;entryDx=0;entryDy=0;entryPerimeter=0;" parent="gEA0rAeKUrwyfOQOb0nm-1" edge="1" target="5mKPGL81uqoDXcXCVs70-0">
          <mxGeometry relative="1" as="geometry">
            <mxPoint x="40" y="518" as="targetPoint" />
            <mxPoint x="177" y="602" as="sourcePoint" />
          </mxGeometry>
        </mxCell>
        <mxCell id="obV4PO8V5TS8Af0Fve6h-4" value="" style="endArrow=none;dashed=1;html=1;dashPattern=1 3;strokeWidth=2;exitX=-0.001;exitY=0.766;exitDx=0;exitDy=0;exitPerimeter=0;entryX=1.003;entryY=0.766;entryDx=0;entryDy=0;entryPerimeter=0;" edge="1" parent="gEA0rAeKUrwyfOQOb0nm-1" source="obV4PO8V5TS8Af0Fve6h-1" target="obV4PO8V5TS8Af0Fve6h-1">
          <mxGeometry width="50" height="50" relative="1" as="geometry">
            <mxPoint x="500" y="400" as="sourcePoint" />
            <mxPoint x="550" y="350" as="targetPoint" />
          </mxGeometry>
        </mxCell>
        <mxCell id="obV4PO8V5TS8Af0Fve6h-6" value="SetExpozicio(expozicio + 1)" style="edgeStyle=orthogonalEdgeStyle;html=1;align=left;spacingLeft=2;endArrow=block;rounded=0;entryX=1;entryY=0;" edge="1" target="obV4PO8V5TS8Af0Fve6h-5" parent="gEA0rAeKUrwyfOQOb0nm-1" source="DI1ERy2E2aJ-kQtJfRe--0">
          <mxGeometry relative="1" as="geometry">
            <mxPoint x="200" y="510" as="sourcePoint" />
            <Array as="points">
              <mxPoint x="230" y="510" />
              <mxPoint x="230" y="530" />
            </Array>
          </mxGeometry>
        </mxCell>
        <mxCell id="obV4PO8V5TS8Af0Fve6h-5" value="" style="html=1;points=[];perimeter=orthogonalPerimeter;" vertex="1" parent="gEA0rAeKUrwyfOQOb0nm-1">
          <mxGeometry x="185" y="530" width="10" height="40" as="geometry" />
        </mxCell>
      </root>
    </mxGraphModel>
  </diagram>
</mxfile>
